<?xml version="1.0" encoding="UTF-8"?>
<svg version="1.1" xmlns="http://www.w3.org/2000/svg" width="370" height="370">
<path d="M0 0 C1.15136444 0.00323273 1.15136444 0.00323273 2.32598877 0.00653076 C14.0371663 0.05918921 25.32382994 0.54019869 36.75 3.3125 C37.54341797 3.49522461 38.33683594 3.67794922 39.15429688 3.86621094 C65.3427097 10.05269015 89.17590973 22.43006671 110.75 38.3125 C110.41524134 41.09901227 110.20129584 42.83307143 108.24609375 44.91015625 C107.22708984 45.63525391 107.22708984 45.63525391 106.1875 46.375 C105.38441406 46.96152344 104.58132813 47.54804687 103.75390625 48.15234375 C102.76261719 48.86519531 101.77132813 49.57804687 100.75 50.3125 C99.44427129 51.28984592 98.1410614 52.2705624 96.83984375 53.25390625 C89.63247174 58.69942039 89.63247174 58.69942039 86.65917969 60.88378906 C85.38733113 61.83556115 84.1372832 62.81718601 82.91113281 63.82714844 C80.11888949 66.04898291 78.35864545 67.29829038 74.73828125 67.3828125 C71.14114854 66.09442771 68.11094624 64.26903525 64.9375 62.1875 C37.42522163 45.06662352 2.40457007 39.6338575 -29.16748047 46.81640625 C-30.19832764 47.06197266 -30.19832764 47.06197266 -31.25 47.3125 C-31.95914551 47.47878906 -32.66829102 47.64507812 -33.39892578 47.81640625 C-44.47828829 50.51199343 -54.27742735 54.84725882 -64.25 60.3125 C-65.27480469 60.85648438 -66.29960938 61.40046875 -67.35546875 61.9609375 C-81.47772102 69.77486926 -97.41305163 80.63058379 -106.25 94.3125 C-107.38056486 95.84372118 -108.51135989 97.37478958 -109.64916992 98.90063477 C-126.07956088 121.17541494 -135.99545248 146.484355 -137.25 174.3125 C-137.30285156 175.19421875 -137.35570312 176.0759375 -137.41015625 176.984375 C-138.51173724 210.89391158 -124.0820366 243.93275745 -102.25 269.3125 C-101.63125 270.05242187 -101.0125 270.79234375 -100.375 271.5546875 C-97.22689174 275.25914248 -94.11225547 278.33383967 -90.25 281.3125 C-89.7444458 281.7038916 -89.2388916 282.0952832 -88.71801758 282.49853516 C-58.33851506 305.82702615 -23.61563389 318.46120001 15.14648438 313.9140625 C41.82117091 309.81753651 63.91808636 299.44923484 84.98388672 282.70703125 C86.60666537 281.42567769 88.25724342 280.17973857 89.91015625 278.9375 C96.54902611 273.82365251 101.12105908 268.26086743 105.75 261.3125 C106.89478427 259.728408 108.04060175 258.14506212 109.1875 256.5625 C121.30893967 238.97398731 128.56340446 221.26798628 132.75 200.3125 C132.94851563 199.36890625 133.14703125 198.4253125 133.3515625 197.453125 C133.69363369 194.75679912 133.77710812 192.30554476 133.75 189.59765625 C133.66339385 175.99531998 133.66339385 175.99531998 136.39453125 171.765625 C138.74588844 169.98621956 141.13987177 168.68272424 143.75 167.3125 C145.81155446 165.77633522 147.85261682 164.21238001 149.875 162.625 C152.9636034 160.30854745 155.96624017 158.06693331 159.375 156.25 C163.48352051 153.89140489 166.91422761 150.98641812 170.515625 147.921875 C172.75 146.3125 172.75 146.3125 175.75 146.3125 C177.69304301 157.27117358 178.11364553 167.90128291 178.0625 179 C178.06034485 179.84110321 178.0581897 180.68220642 178.05596924 181.54879761 C178.00598529 193.69648503 177.71198979 205.47258974 174.75 217.3125 C174.55664062 218.12283691 174.36328125 218.93317383 174.1640625 219.76806641 C168.68816947 242.22514313 159.36230754 265.0606677 145.16796875 283.47192383 C143.71999524 285.3514473 142.32607673 287.26382825 140.9375 289.1875 C137.18720725 294.17812394 133.00901368 298.75435827 128.75 303.3125 C128.06164062 304.055 127.37328125 304.7975 126.6640625 305.5625 C118.65713272 313.8968507 109.42494742 321.01630355 99.75 327.3125 C98.91118286 327.86611206 98.91118286 327.86611206 98.05541992 328.4309082 C88.01792128 335.0255735 77.80779597 340.62146253 66.75 345.3125 C65.66259521 345.77849609 65.66259521 345.77849609 64.55322266 346.25390625 C43.72394035 355.00870681 21.4874704 358.54397862 -1 358.5625 C-2.10314545 358.56351212 -2.10314545 358.56351212 -3.22857666 358.56454468 C-15.12744652 358.54723429 -26.60564388 357.88774288 -38.25 355.3125 C-39.02375977 355.14621094 -39.79751953 354.97992188 -40.59472656 354.80859375 C-63.26033606 349.79037762 -86.49882973 340.41671492 -104.92578125 326.1015625 C-107.29493393 324.23094175 -107.29493393 324.23094175 -110.125 322.4296875 C-124.62288337 312.60737152 -136.3227429 299.61650372 -146.25 285.3125 C-147.29220703 283.90677734 -147.29220703 283.90677734 -148.35546875 282.47265625 C-176.16988615 244.22167869 -186.14475685 196.74346741 -179.2734375 150.3125 C-175.35316634 126.3095724 -166.62791517 94.42675555 -148.703125 76.79052734 C-147.01434397 75.21688095 -147.01434397 75.21688095 -145.6875 72.3125 C-143.09890788 67.60325357 -139.4095268 63.91362339 -135.7578125 60.01171875 C-133.69213776 57.78838348 -131.74425835 55.52520757 -129.8125 53.1875 C-125.49339992 48.24709086 -120.43312379 44.30795906 -115.25 40.3125 C-114.40622803 39.65628662 -114.40622803 39.65628662 -113.54541016 38.98681641 C-92.58593858 22.77593009 -68.56726534 10.91993949 -42.8125 4.625 C-41.99104492 4.42237549 -41.16958984 4.21975098 -40.32324219 4.01098633 C-26.91582047 0.88110808 -13.7050885 -0.06963324 0 0 Z " fill="#60B768" transform="translate(186.25,5.6875)"/>
<path d="M0 0 C1.66796875 1.90625 1.66796875 1.90625 3.1875 4.5 C4.06535156 5.97146484 4.06535156 5.97146484 4.9609375 7.47265625 C5.43998535 8.30240967 5.43998535 8.30240967 5.92871094 9.14892578 C7.13530071 11.23378532 8.36731418 13.30249357 9.6015625 15.37109375 C11.3637697 18.33502177 13.12112671 21.30157771 14.86328125 24.27734375 C15.22719971 24.89859131 15.59111816 25.51983887 15.96606445 26.15991211 C19.83528194 33.04593152 19.83528194 33.04593152 19 37 C16.78585869 38.97145465 14.76836755 40.52046715 12.3125 42.125 C11.68666016 42.55425781 11.06082031 42.98351562 10.41601562 43.42578125 C7.84536805 45.17543667 5.26783964 46.84627211 2.5703125 48.39453125 C-1.32347878 50.8266714 -4.84160173 53.71443305 -8.4375 56.5625 C-14.436733 61.27467102 -20.48745283 65.85515396 -26.73339844 70.23388672 C-31.48931849 73.58657762 -36.08838119 77.12377696 -40.6875 80.6875 C-45.18369608 84.16520149 -49.64458996 87.53075835 -54.5 90.5 C-64.37912736 96.55639978 -73.34031077 104.09932571 -82.41845703 111.27612305 C-87.8642681 115.58057314 -93.35432081 119.81212784 -98.9375 123.9375 C-99.54029785 124.38625488 -100.1430957 124.83500977 -100.76416016 125.29736328 C-103.646433 127.41017862 -106.52940132 129.34891236 -109.65234375 131.08984375 C-112.58423559 132.76276687 -115.03761164 134.47646196 -117.625 136.625 C-121.62498138 139.89103984 -125.66065132 143.09723275 -129.75 146.25 C-130.54591553 146.8680249 -130.54591553 146.8680249 -131.35791016 147.49853516 C-140.6833652 154.68114445 -140.6833652 154.68114445 -144.37109375 155.57421875 C-148.55187083 154.66103267 -151.60201599 152.25559416 -155.0625 149.8125 C-156.6698396 148.71116857 -158.27794137 147.61094886 -159.88671875 146.51171875 C-160.72251465 145.93599121 -161.55831055 145.36026367 -162.41943359 144.76708984 C-172.72990279 137.70680829 -182.98317056 130.69766815 -194.3203125 125.3984375 C-198.36422039 123.28805991 -201.91092801 120.59752564 -205.52734375 117.83203125 C-207.93000328 115.93630662 -207.93000328 115.93630662 -210.61906433 114.71659851 C-213 113 -213 113 -213.60127258 110.58918762 C-213.59016953 109.63654526 -213.57906647 108.68390289 -213.56762695 107.70239258 C-213.5672493 106.62149857 -213.56687164 105.54060455 -213.56648254 104.42695618 C-213.54067612 103.26125595 -213.51486969 102.09555573 -213.48828125 100.89453125 C-213.47766914 99.10301888 -213.47766914 99.10301888 -213.46684265 97.27531433 C-213.43881302 93.45374398 -213.37605358 89.63362889 -213.3125 85.8125 C-213.28742845 83.2246305 -213.2646133 80.63673809 -213.24414062 78.04882812 C-213.18895798 71.69872068 -213.10524449 65.34946428 -213 59 C-208.99807146 59.85908351 -206.18806612 61.74551013 -202.875 64.0625 C-187.87589204 74.29826182 -172.17944201 83.51539443 -156.625 92.875 C-155.80555908 93.3685498 -154.98611816 93.86209961 -154.1418457 94.37060547 C-153.38605225 94.82322754 -152.63025879 95.27584961 -151.8515625 95.7421875 C-151.20010254 96.1326123 -150.54864258 96.52303711 -149.87744141 96.92529297 C-147.95171867 98.02763776 -145.99362514 99.02670369 -144 100 C-143.52804199 99.65855957 -143.05608398 99.31711914 -142.56982422 98.96533203 C-140.3385227 97.35146359 -138.1068329 95.73813351 -135.875 94.125 C-135.05185303 93.53001709 -134.22870605 92.93503418 -133.38061523 92.32202148 C-129.16058958 89.27415696 -124.93487718 86.23510123 -120.69140625 83.2199707 C-109.16682322 75.0308148 -97.79944549 66.62159603 -86.5 58.125 C-79.0387552 52.51613082 -71.51480246 47.02399036 -63.8125 41.75 C-54.30366084 35.19569301 -45.00264505 28.31328192 -36.0625 21 C-29.60088831 15.76499934 -22.74284034 11.07208372 -15.91162109 6.33740234 C-14.2867033 5.20058246 -12.68203619 4.03490468 -11.08203125 2.86328125 C-10.31246094 2.31027344 -9.54289063 1.75726563 -8.75 1.1875 C-7.81414062 0.49720703 -7.81414062 0.49720703 -6.859375 -0.20703125 C-4.16310846 -1.35690963 -2.72174778 -1.01364616 0 0 Z " fill="#21A038" transform="translate(329,77)"/>
</svg>
