<?xml version="1.0" standalone="no"?>
<!DOCTYPE svg PUBLIC "-//W3C//DTD SVG 20010904//EN"
 "http://www.w3.org/TR/2001/REC-SVG-20010904/DTD/svg10.dtd">
<svg version="1.0" xmlns="http://www.w3.org/2000/svg"
 width="1000.000000pt" height="1000.000000pt" viewBox="0 0 1000.000000 1000.000000"
 preserveAspectRatio="xMidYMid meet">

<g transform="translate(0.000000,1000.000000) scale(0.100000,-0.100000)"
fill="#000000" stroke="none">
<path d="M4400 9994 c-1312 -40 -2066 -181 -2695 -502 -432 -221 -765 -518
-1036 -925 -487 -733 -669 -1701 -669 -3567 0 -1891 187 -2858 698 -3605 537
-787 1345 -1186 2682 -1325 774 -80 2083 -91 2960 -25 1578 120 2461 547 3041
1470 317 504 500 1185 573 2135 31 390 40 704 40 1355 0 1085 -45 1697 -165
2285 -220 1071 -737 1804 -1565 2218 -554 277 -1229 415 -2294 472 -189 10
-1357 21 -1570 14z m724 -1206 c24 -23 25 -28 36 -248 51 -1036 186 -1660 461
-2141 118 -206 288 -410 467 -559 515 -431 1177 -616 2442 -682 291 -15 280
-9 280 -152 0 -52 -5 -107 -12 -120 -14 -32 -60 -46 -151 -46 -102 0 -386 -18
-626 -40 -898 -83 -1468 -268 -1901 -617 -155 -126 -341 -335 -452 -508 -302
-475 -449 -1108 -508 -2195 -5 -102 -10 -198 -10 -213 0 -16 -10 -38 -25 -52
-22 -23 -31 -25 -124 -25 -89 0 -103 2 -126 23 -26 22 -26 25 -36 212 -64
1273 -241 1935 -656 2450 -391 485 -948 756 -1814 879 -294 42 -815 86 -1019
86 -86 0 -136 13 -150 40 -6 10 -10 64 -10 120 0 145 0 145 201 154 886 40
1485 142 1938 332 569 239 982 666 1209 1251 159 411 252 946 292 1673 19 347
20 360 41 381 16 16 34 19 123 19 95 0 107 -2 130 -22z"/>
</g>
</svg>
